# xmcd
#
# Track frame offsets: 
#        150
#        23097
#        55985
#        60102
#        61752
#        71965
#        84980
#        97147
#        112912
#        121200
#
# Disc length: 1815 seconds
#
# Revision: 12
# Processed by: cddbd v1.5.2PL0 Copyright (c) Steve Scherf et al.
# Submitted via: ExactAudioCopy v0.99pb5
#
DISCID=7c07150a
DTITLE=Basil Poledouris - The Hunt For Red October
DYEAR=1990
DGENRE=Soundtrack
TTITLE0=Hymn To Red October (Main Title)
TTITLE1=Nuclear Scam
TTITLE2=Putin's Demise
TTITLE3=Course Two-Five-Zero
TTITLE4=Ancestral Aid
TTITLE5=Chopper
TTITLE6=Two Wives
TTITLE7=Red Route 1
TTITLE8=Plane Crash
TTITLE9=Kaboom!!!
EXTD=
EXTT0=
EXTT1=
EXTT2=
EXTT3=
EXTT4=
EXTT5=
EXTT6=
EXTT7=
EXTT8=
EXTT9=
PLAYORDER=
